<svg width="250" height="54" viewBox="0 0 250 54" fill="none" xmlns="http://www.w3.org/2000/svg">
<g clip-path="url(#clip0_5293_4855)">
<path d="M176.061 13.0321L176.036 13.0949C175.813 13.7159 174.511 16.8284 170.949 16.8284C167.286 16.8284 166.137 13.3989 166.018 13.0083C165.99 12.9354 165.972 12.8413 165.963 12.7915L165.922 12.5435H166.87L166.91 12.7022C166.943 12.8319 167.761 15.8854 170.949 15.8854C174.165 15.8854 175.129 12.8496 175.168 12.7199L175.237 12.531L175.59 12.5458L176.149 12.5395L176.117 12.7996C176.108 12.8575 176.09 12.9552 176.061 13.0321V13.0321ZM171.027 0.00108203C166.834 0.00108203 163.436 4.34115 163.436 9.69428C163.436 13.0955 164.81 16.0868 166.887 17.8163C168.066 18.8211 168.734 20.2323 168.734 21.9991L168.385 51.9319C168.383 51.9604 168.376 51.9875 168.376 52.0167V52.5737C168.376 53.2692 168.944 53.8384 169.64 53.8384H171.976C172.672 53.8384 173.241 53.2692 173.241 52.5737V52.0167C173.241 51.9667 173.231 51.9194 173.226 51.8709C173.158 47.311 172.723 22.9674 172.723 22.145C172.723 20.4068 173.741 18.8308 175.256 17.7434C177.283 16.0026 178.617 13.0472 178.617 9.69428C178.617 4.34115 175.219 0.00108203 171.027 0.00108203" fill="#1A5961"/>
<path d="M11.1573 42.3517C14.3732 42.3517 15.6835 39.6512 15.6835 33.4576C15.6835 27.4222 14.3337 25.2782 11.4745 25.2782C8.25877 25.2782 6.27359 28.4545 6.27359 31.8295V36.4355C6.27359 39.3342 7.74272 42.3517 11.1573 42.3517V42.3517ZM0.318198 51.2056H2.77965V25.4766H0V24.8812H6.19405V28.6933H6.27359C7.10737 26.3106 8.89412 24.6032 12.1102 24.6032C16.9938 24.6032 19.4159 28.0176 19.4159 33.5367C19.4159 39.5325 16.2791 43.0264 11.5149 43.0264C8.65567 43.0264 7.06738 41.4775 6.35313 39.8105H6.27359V51.2056H8.73505V51.8008H0.318198V51.2056" fill="#1A5961"/>
<path d="M27.4341 42.3517C28.3075 42.3517 29.2209 41.9939 30.0145 41.4379C31.1265 40.6441 31.9999 39.4925 31.9999 38.5797V33.4975H31.2856C29.5782 33.4975 28.1886 33.7755 27.1561 34.3707C25.846 35.125 25.1309 36.475 25.1309 38.6589C25.1309 41.2792 25.9648 42.3517 27.4341 42.3517V42.3517ZM31.603 32.9016H31.9999V28.7325C31.9999 26.3899 31.365 25.1197 28.7446 25.1197C26.3223 25.1197 25.012 26.0326 25.012 28.1373C25.012 29.4478 25.568 30.5588 26.8781 30.2812V30.5988C26.8781 30.5988 26.1634 30.8368 25.3294 30.8368C23.5426 30.8368 22.3119 29.8445 22.3119 28.256C22.3119 26.0726 24.575 24.6032 28.7446 24.6032C33.5488 24.6032 35.4938 26.5884 35.4938 30.0428V40.4056C35.4938 41.5572 35.7325 42.1924 36.5663 42.1924C37.9159 42.1924 38.4323 40.8819 38.4323 39.4529H39.0279C39.0279 41.8352 37.7175 43.0264 35.8512 43.0264C33.7071 43.0264 32.4763 41.7957 32.3574 39.7705H32.2779C31.4841 41.3192 29.6572 43.0264 26.719 43.0264C24.178 43.0264 21.3592 41.8752 21.3592 38.5797C21.3592 34.2909 26.7988 32.9016 31.603 32.9016" fill="#1A5961"/>
<path d="M38.7887 42.1531H41.607V25.4765H38.4311V24.8811H45.022V29.05H45.1016C45.1016 29.05 46.2924 24.6031 51.4939 24.6031C55.0672 24.6031 56.8536 25.9929 57.1314 29.05H57.2108C57.2108 29.05 58.4023 24.6031 63.6033 24.6031C67.5344 24.6031 69.3214 26.2709 69.3214 30.0427V42.1531H72.0999V42.7483H63.3255V42.1531H65.8274V29.3279C65.8274 26.3505 65.1525 25.3182 63.0078 25.3182C58.72 25.3182 57.2902 29.7647 57.2108 31.9091V42.1531H59.9904V42.7483H51.2163V42.1531H53.7168V29.3279C53.7168 26.3505 53.0422 25.3182 50.8981 25.3182C46.5308 25.3182 45.1016 30.0031 45.1016 32.0678V42.1531H47.5631V42.7483H38.7887V42.1531" fill="#1A5961"/>
<path d="M83.0563 42.3517C86.272 42.3517 87.5824 39.6512 87.5824 33.4576C87.5824 27.4222 86.2325 25.2782 83.3735 25.2782C80.1578 25.2782 78.1725 28.4545 78.1725 31.8295V36.4355C78.1725 39.3342 79.6418 42.3517 83.0563 42.3517V42.3517ZM72.2167 51.2056H74.6785V25.4766H71.8989V24.8812H78.0931V28.6933H78.1725C79.0063 26.3106 80.7933 24.6032 84.009 24.6032C88.8927 24.6032 91.3152 28.0176 91.3152 33.5367C91.3152 39.5325 88.1778 43.0264 83.4135 43.0264C80.5544 43.0264 78.9663 41.4775 78.2519 39.8105H78.1725V51.2056H80.6339V51.8008H72.2167V51.2056" fill="#1A5961"/>
<path d="M105.13 32.7433V31.1548C105.13 27.4222 104.375 25.1197 101.556 25.1197C98.5787 25.1197 97.3873 27.7402 97.2684 32.7433H105.13ZM101.556 24.6032C106.043 24.6032 108.584 26.827 108.584 31.75V33.3382H97.2284V33.9338C97.2284 40.6836 98.8165 42.4308 101.954 42.4308C104.812 42.4308 107.552 40.565 107.552 37.6266H108.187C108.187 39.9292 106.678 41.7159 104.455 42.5499C103.581 42.8675 102.787 43.0264 101.596 43.0264C96.7123 43.0264 93.5361 40.3665 93.5361 33.8547C93.5361 27.1051 96.7923 24.6032 101.556 24.6032" fill="#1A5961"/>
<path d="M109.853 24.8811H116.047V29.09H116.126C116.841 27.0252 118.429 24.6031 121.248 24.6031C123.353 24.6031 125.02 25.9929 125.02 28.2164C125.02 30.162 123.789 31.3532 122.201 31.3532C121.765 31.3532 121.368 31.3532 120.851 31.1147V30.7971C122.002 30.9954 122.201 29.5664 122.201 28.4544C122.201 26.4694 121.566 25.4371 120.375 25.4371C119.263 25.4371 118.231 26.3898 117.476 27.6208C116.603 29.05 116.126 30.7971 116.126 32.0279V42.1531H119.303V42.7483H109.853V42.1531H112.632V25.4765H109.853V24.8811Z" fill="#1A5961"/>
<path d="M137.526 32.7433V31.1548C137.526 27.4222 136.772 25.1197 133.952 25.1197C130.975 25.1197 129.783 27.7402 129.665 32.7433H137.526ZM133.952 24.6032C138.439 24.6032 140.98 26.827 140.98 31.75V33.3382H129.624V33.9338C129.624 40.6836 131.213 42.4308 134.35 42.4308C137.208 42.4308 139.948 40.565 139.948 37.6266H140.583C140.583 39.9292 139.075 41.7159 136.851 42.5499C135.977 42.8675 135.183 43.0264 133.992 43.0264C129.109 43.0264 125.932 40.3665 125.932 33.8547C125.932 27.1051 129.188 24.6032 133.952 24.6032Z" fill="#1A5961"/>
<path d="M151.024 42.3517C154.24 42.3517 156.226 39.1749 156.226 35.7997V31.1943C156.226 28.2956 154.756 25.2782 151.342 25.2782C148.126 25.2782 146.816 27.978 146.816 34.1723C146.816 40.2072 148.165 42.3517 151.024 42.3517V42.3517ZM150.984 24.6032C153.843 24.6032 155.431 26.1519 156.146 27.8194H156.226V14.8357H153.445V14.2404H159.72V42.1532H162.499V42.7484H156.305V38.9369H156.226C155.391 41.3192 153.605 43.0264 150.389 43.0264C145.505 43.0264 143.083 39.6123 143.083 34.0927C143.083 28.0973 146.219 24.6032 150.984 24.6032Z" fill="#1A5961"/>
<path d="M187.73 24.6786C191.144 24.6786 193.764 26.2669 193.764 28.5299C193.764 29.4436 193.129 31.1111 190.985 31.1111C190.548 31.1111 189.913 31.0319 189.397 30.8726V30.5551C190.667 30.8331 191.144 29.5624 191.144 28.2519C191.144 26.5845 189.913 25.195 187.73 25.195C184.592 25.195 183.361 27.4976 183.361 33.9303C183.361 40.2432 184.592 42.5062 187.73 42.5062C189.039 42.5062 190.35 42.1882 191.461 41.1558C192.374 40.3224 192.97 39.1316 192.97 37.662H193.605C193.605 39.1316 193.01 40.5608 191.898 41.5531C190.865 42.5062 189.357 43.1018 187.332 43.1018C183.044 43.1018 179.669 40.4015 179.669 34.0494C179.669 27.8551 182.925 24.6786 187.73 24.6786Z" fill="#1A5961"/>
<path d="M194.478 42.2281H197.258V14.9113H194.478V14.3159H200.751V29.0063H200.831C200.831 29.0063 202.062 24.6786 207.144 24.6786C211.075 24.6786 212.861 26.3464 212.861 30.1183V42.2281H215.64V42.8237H206.866V42.2281H209.368V29.4034C209.368 26.4259 208.692 25.3937 206.548 25.3937C202.141 25.3937 200.751 30.0385 200.751 32.1033V42.2281H203.253V42.8237H194.478V42.2281" fill="#1A5961"/>
<path d="M228.145 32.8187V31.2304C228.145 27.4976 227.391 25.195 224.572 25.195C221.595 25.195 220.403 27.8156 220.284 32.8187H228.145ZM224.572 24.6786C229.059 24.6786 231.6 26.9024 231.6 31.8253V33.4138H220.244V34.0094C220.244 40.759 221.832 42.5062 224.97 42.5062C227.828 42.5062 230.567 40.6404 230.567 37.702H231.203C231.203 40.0048 229.694 41.7915 227.471 42.6255C226.597 42.9425 225.803 43.1018 224.612 43.1018C219.728 43.1018 216.552 40.4414 216.552 33.9303C216.552 27.1802 219.808 24.6786 224.572 24.6786Z" fill="#1A5961"/>
<path d="M232.868 42.2281H235.647V25.5519H232.868V24.9565H235.647V21.3831C235.647 16.8971 238.228 13.7998 242.874 13.7998C245.812 13.7998 248.194 15.2293 248.194 17.2536C248.194 18.6436 247.162 19.8348 245.216 19.8348C244.779 19.8348 244.224 19.7554 243.628 19.5963V19.2792C245.176 19.5963 245.653 17.9687 245.653 17.016C245.653 15.5466 244.62 14.3159 242.874 14.3159C240.174 14.3159 239.142 16.063 239.142 19.8348V24.9565H243.747V25.5519H239.142V42.2281H242.318V42.8237H232.868V42.2281Z" fill="#1A5961"/>
<path d="M247.709 41.854C247.965 41.854 248.104 41.668 248.104 41.4004C248.104 41.1328 247.953 41.0162 247.709 41.0162H247.372V41.854H247.709ZM246.44 42.9706H246.813V41.0048H246.44V40.7139H247.581C248.348 40.7139 248.651 40.9117 248.651 41.3536C248.651 41.7492 248.407 41.97 248.022 42.0164V42.0512C248.848 42.2261 248.325 42.9466 248.755 42.9466H248.813L248.802 43.1913C248.802 43.1913 248.721 43.2611 248.546 43.2611C247.674 43.2611 248.185 42.133 247.533 42.133H247.372V42.9706H247.767V43.2492H246.44V42.9706ZM249.57 41.9821C249.57 40.9117 248.685 39.9927 247.639 39.9927C246.592 39.9927 245.743 40.9117 245.743 41.9821C245.743 43.0633 246.592 43.9708 247.639 43.9708C248.685 43.9708 249.57 43.0633 249.57 41.9821V41.9821ZM245.313 41.9821C245.313 40.7024 246.383 39.632 247.65 39.632C248.93 39.632 249.999 40.7139 249.999 41.9821C249.999 43.2492 248.93 44.3196 247.65 44.3196C246.383 44.3196 245.313 43.2611 245.313 41.9821" fill="#1A5961"/>
</g>
<defs>
<clipPath id="clip0_5293_4855">
<rect width="250" height="54" fill="white"/>
</clipPath>
</defs>
</svg>
